name analog
datacolumns 19
datarows 57
range 0.184 0.212
endheader
time	ground_force_vx	ground_force_vy	ground_force_vz	ground_force_px	ground_force_py	ground_force_pz	l_ground_force_vx	l_ground_force_vy	l_ground_force_vz	l_ground_force_px	l_ground_force_py	l_ground_force_pz	ground_torque_x	ground_torque_y	ground_torque_z	l_ground_torque_x	l_ground_torque_y	l_ground_torque_z
0.184	-0.0	-0.0	-0.0	-0.0	-0.0	-0.0	-14.903411865234377	5.829231262207031	-741.6463012695312	-0.0	-0.0	-0.0	-0.0	-0.0	-0.0	254503.1875	-2762.0849609375	-7310.5732421875
0.1845	-0.0	-0.0	-0.0	-0.0	-0.0	-0.0	-14.600272178649902	5.350778102874756	-741.6951293945312	-0.0	-0.0	-0.0	-0.0	-0.0	-0.0	254454.5	-2971.647705078125	-6818.58984375
0.185	-0.0	-0.0	-0.0	-0.0	-0.0	-0.0	-13.776962280273438	4.769371032714844	-740.9972534179688	-0.0	-0.0	-0.0	-0.0	-0.0	-0.0	254042.421875	-2483.830810546875	-6513.2939453125
0.1855	-0.0	-0.0	-0.0	-0.0	-0.0	-0.0	-13.356395721435549	3.76066255569458	-740.1524658203125	-0.0	-0.0	-0.0	-0.0	-0.0	-0.0	253947.078125	-2453.916259765625	-6157.32275390625
0.186	-0.0	-0.0	-0.0	-0.0	-0.0	-0.0	-12.64699935913086	3.103721141815185	-738.7555541992188	-0.0	-0.0	-0.0	-0.0	-0.0	-0.0	253256.1875	-2423.15771484375	-5796.8798828125
0.1865	-0.0	-0.0	-0.0	-0.0	-0.0	-0.0	-12.634628295898438	2.183021306991577	-736.6080322265625	-0.0	-0.0	-0.0	-0.0	-0.0	-0.0	252607.390625	-2447.70654296875	-5763.2548828125
0.187	-0.0	-0.0	-0.0	-0.0	-0.0	-0.0	-12.432147979736328	1.6149554252624512	-735.2636108398438	-0.0	-0.0	-0.0	-0.0	-0.0	-0.0	252119.390625	-2478.544189453125	-5746.35107421875
0.1875	-0.0	-0.0	-0.0	-0.0	-0.0	-0.0	-12.330799102783203	1.2491340637207031	-730.8741455078125	-0.0	-0.0	-0.0	-0.0	-0.0	-0.0	251042.390625	-2440.839599609375	-5403.06591796875
0.188	-0.0	-0.0	-0.0	-0.0	-0.0	-0.0	-11.608366012573242	0.8075858354568481	-729.47607421875	-0.0	-0.0	-0.0	-0.0	-0.0	-0.0	250113.4375	-2982.7509765625	-5279.72509765625
0.1885	-0.0	-0.0	-0.0	-0.0	-0.0	-0.0	-10.39198112487793	0.7959128022193909	-724.9437255859375	-0.0	-0.0	-0.0	-0.0	-0.0	-0.0	249346.6875	-2975.29345703125	-4884.95068359375
0.189	-0.0	-0.0	-0.0	-0.0	-0.0	-0.0	-8.97265625	0.7948951721191406	-724.0391845703125	-0.0	-0.0	-0.0	-0.0	-0.0	-0.0	248657.171875	-3469.528564453125	-4434.7265625
0.1895	-0.0	-0.0	-0.0	-0.0	-0.0	-0.0	-7.477560520172119	0.8960874080657959	-721.5946655273438	-0.0	-0.0	-0.0	-0.0	-0.0	-0.0	247923.46875	-4036.818603515625	-4090.082763671875
0.19	-0.0	-0.0	-0.0	-0.0	-0.0	-0.0	-6.553885459899902	0.5428728461265564	-720.052978515625	-0.0	-0.0	-0.0	-0.0	-0.0	-0.0	247792.015625	-4227.49072265625	-3831.184326171875
0.1905	-0.0	-0.0	-0.0	-0.0	-0.0	-0.0	-6.170610427856445	0.4416084289550781	-720.4025268554688	-0.0	-0.0	-0.0	-0.0	-0.0	-0.0	247929.921875	-4969.40869140625	-3682.6171875
0.191	-0.0	-0.0	-0.0	-0.0	-0.0	-0.0	-5.447586536407471	0.4285454154014587	-721.101318359375	-0.0	-0.0	-0.0	-0.0	-0.0	-0.0	248053.484375	-5603.4658203125	-3533.7861328125
0.1915	-0.0	-0.0	-0.0	-0.0	-0.0	-0.0	-4.839550018310547	0.2518418431282043	-721.6964111328125	-0.0	-0.0	-0.0	-0.0	-0.0	-0.0	248684.578125	-6052.43701171875	-3249.981201171875
0.192	-0.0	-0.0	-0.0	-0.0	-0.0	-0.0	-3.6768295764923096	0.0263422280550003	-724.8908081054688	-0.0	-0.0	-0.0	-0.0	-0.0	-0.0	249438.140625	-7046.802734375	-2915.409912109375
0.1925	-0.0	-0.0	-0.0	-0.0	-0.0	-0.0	-2.785538673400879	0.8567304015159607	-726.88134765625	-0.0	-0.0	-0.0	-0.0	-0.0	-0.0	250278.484375	-7482.34033203125	-2717.511474609375
0.193	-0.0	-0.0	-0.0	-0.0	-0.0	-0.0	-1.4460718631744385	1.638238787651062	-730.61669921875	-0.0	-0.0	-0.0	-0.0	-0.0	-0.0	251904.71875	-8279.939453125	-2428.599609375
0.1935	-0.0	-0.0	-0.0	-0.0	-0.0	-0.0	-0.2310611307621002	1.854755401611328	-736.202392578125	-0.0	-0.0	-0.0	-0.0	-0.0	-0.0	253130.84375	-9217.890625	-2046.5118408203125
0.194	-0.0	-0.0	-0.0	-0.0	-0.0	-0.0	0.9566707015037536	2.398108720779419	-738.8578491210938	-0.0	-0.0	-0.0	-0.0	-0.0	-0.0	254406.796875	-10055.9150390625	-1783.061279296875
0.1945	-0.0	-0.0	-0.0	-0.0	-0.0	-0.0	2.354599714279175	3.2813735008239746	-741.0595092773438	-0.0	-0.0	-0.0	-0.0	-0.0	-0.0	255791.703125	-11114.8818359375	-1409.799560546875
0.195	-0.0	-0.0	-0.0	-0.0	-0.0	-0.0	3.179985284805298	3.471632242202759	-747.5870971679688	-0.0	-0.0	-0.0	-0.0	-0.0	-0.0	256770.625	-11850.44140625	-850.193115234375
0.1955	-0.0	-0.0	-0.0	-0.0	-0.0	-0.0	3.971590518951416	2.935119867324829	-752.1528930664062	-0.0	-0.0	-0.0	-0.0	-0.0	-0.0	257651.671875	-12543.828125	-649.0387573242188
0.196	-0.0	-0.0	-0.0	-0.0	-0.0	-0.0	5.110533237457275	2.8126425743103027	-752.7169189453125	-0.0	-0.0	-0.0	-0.0	-0.0	-0.0	258166.59375	-13254.8642578125	-242.1332550048828
0.1965	-0.0	-0.0	-0.0	-0.0	-0.0	-0.0	5.760193824768066	0.8832168579101562	-754.3844604492188	-0.0	-0.0	-0.0	-0.0	-0.0	-0.0	258538.453125	-14171.2890625	-36.57028198242188
0.197	-0.0	-0.0	-0.0	-0.0	-0.0	-0.0	6.237419605255127	-0.706573486328125	-756.960693359375	-0.0	-0.0	-0.0	-0.0	-0.0	-0.0	259236.84375	-14256.71484375	246.1943359375
0.1975	-0.0	-0.0	-0.0	-0.0	-0.0	-0.0	6.331605911254883	-1.6642802953720093	-760.3428955078125	-0.0	-0.0	-0.0	-0.0	-0.0	-0.0	259139.25	-14608.8701171875	218.1647491455078
0.198	-0.0	-0.0	-0.0	-0.0	-0.0	-0.0	6.494772434234619	-2.5474250316619877	-758.173095703125	-0.0	-0.0	-0.0	-0.0	-0.0	-0.0	258807.15625	-15261.978515625	97.63395690917967
0.1985	-0.0	-0.0	-0.0	-0.0	-0.0	-0.0	6.784060478210449	-4.304466724395752	-758.0633544921875	-0.0	-0.0	-0.0	-0.0	-0.0	-0.0	258598.421875	-15448.0634765625	286.31378173828125
0.199	-0.0	-0.0	-0.0	-0.0	-0.0	-0.0	7.731924533843994	-5.522193431854248	-759.0001831054688	-0.0	-0.0	-0.0	-0.0	-0.0	-0.0	258468.171875	-15943.03125	533.3387451171875
0.1995	-0.0	-0.0	-0.0	-0.0	-0.0	-0.0	8.338813781738281	-6.7585530281066895	-758.1904296875	-0.0	-0.0	-0.0	-0.0	-0.0	-0.0	258060.234375	-15906.8681640625	790.9638061523438
0.2	-0.0	-0.0	-0.0	-0.0	-0.0	-0.0	8.221713066101074	-7.641588687896728	-758.9439086914062	-0.0	-0.0	-0.0	-0.0	-0.0	-0.0	258143.984375	-16301.658203125	502.2640380859375
0.2005	-0.0	-0.0	-0.0	-0.0	-0.0	-0.0	8.193034172058105	-7.934747219085693	-757.7713623046875	-0.0	-0.0	-0.0	-0.0	-0.0	-0.0	257443.6875	-16361.5263671875	368.2826843261719
0.201	-0.0	-0.0	-0.0	-0.0	-0.0	-0.0	8.36744499206543	-8.743846893310547	-758.24462890625	-0.0	-0.0	-0.0	-0.0	-0.0	-0.0	257565.40625	-16591.861328125	548.198974609375
0.2015	-0.0	-0.0	-0.0	-0.0	-0.0	-0.0	8.753616333007812	-9.24515151977539	-757.6590576171875	-0.0	-0.0	-0.0	-0.0	-0.0	-0.0	257658.6875	-16919.80859375	399.1241455078125
0.202	-0.0	-0.0	-0.0	-0.0	-0.0	-0.0	8.621415138244629	-9.877643585205078	-759.0556640625	-0.0	-0.0	-0.0	-0.0	-0.0	-0.0	257573.390625	-17236.71875	325.0956726074219
0.2025	-0.0	-0.0	-0.0	-0.0	-0.0	-0.0	8.221109390258789	-9.731541633605955	-760.0391845703125	-0.0	-0.0	-0.0	-0.0	-0.0	-0.0	258161.46875	-17453.42578125	175.9329071044922
0.203	-0.0	-0.0	-0.0	-0.0	-0.0	-0.0	8.60494613647461	-10.230810165405272	-761.3849487304688	-0.0	-0.0	-0.0	-0.0	-0.0	-0.0	258056.828125	-17946.75390625	127.04913330078124
0.20350000000000001	-0.0	-0.0	-0.0	-0.0	-0.0	-0.0	8.14676284790039	-10.008550643920898	-762.7810668945312	-0.0	-0.0	-0.0	-0.0	-0.0	-0.0	258541.078125	-18029.056640625	-16.628402709960938
0.20400000000000001	-0.0	-0.0	-0.0	-0.0	-0.0	-0.0	7.126217365264893	-10.363507270812988	-764.8179321289062	-0.0	-0.0	-0.0	-0.0	-0.0	-0.0	259233.609375	-18114.26953125	-61.80021286010742
0.20450000000000002	-0.0	-0.0	-0.0	-0.0	-0.0	-0.0	5.987872123718262	-9.553426742553713	-763.7687377929688	-0.0	-0.0	-0.0	-0.0	-0.0	-0.0	259473.71875	-18313.169921875	-502.5275268554688
0.20500000000000002	-0.0	-0.0	-0.0	-0.0	-0.0	-0.0	4.879169464111328	-8.523080825805664	-766.21337890625	-0.0	-0.0	-0.0	-0.0	-0.0	-0.0	259935.453125	-18538.544921875	-572.2080688476562
0.20550000000000002	-0.0	-0.0	-0.0	-0.0	-0.0	-0.0	4.25811767578125	-7.816250801086426	-766.3878173828125	-0.0	-0.0	-0.0	-0.0	-0.0	-0.0	260523.859375	-18495.34375	-1116.2535400390625
0.20600000000000002	-0.0	-0.0	-0.0	-0.0	-0.0	-0.0	3.371009826660156	-6.667852401733398	-769.0047607421875	-0.0	-0.0	-0.0	-0.0	-0.0	-0.0	261144.140625	-18883.0703125	-1175.872314453125
0.20650000000000002	-0.0	-0.0	-0.0	-0.0	-0.0	-0.0	2.75003433227539	-5.064162731170654	-770.9857177734375	-0.0	-0.0	-0.0	-0.0	-0.0	-0.0	262058.203125	-18800.58984375	-1324.194580078125
0.20700000000000002	-0.0	-0.0	-0.0	-0.0	-0.0	-0.0	2.8387451171875	-3.60620379447937	-772.0927124023438	-0.0	-0.0	-0.0	-0.0	-0.0	-0.0	262859.0	-19076.44140625	-1279.4837646484375
0.20750000000000002	-0.0	-0.0	-0.0	-0.0	-0.0	-0.0	2.6159884929656982	-1.854755401611328	-775.1088256835938	-0.0	-0.0	-0.0	-0.0	-0.0	-0.0	263741.9375	-19378.857421875	-1476.7593994140625
0.20800000000000002	-0.0	-0.0	-0.0	-0.0	-0.0	-0.0	2.440670967102051	-0.4868888258934021	-775.6447143554688	-0.0	-0.0	-0.0	-0.0	-0.0	-0.0	264371.8125	-19474.93359375	-1610.3846435546875
0.2085	-0.0	-0.0	-0.0	-0.0	-0.0	-0.0	1.4955346584320068	0.0026719272136688	-774.6475219726562	-0.0	-0.0	-0.0	-0.0	-0.0	-0.0	264389.34375	-19655.3984375	-1566.0362548828125
0.209	-0.0	-0.0	-0.0	-0.0	-0.0	-0.0	1.4070653915405271	0.4141415953636169	-773.1536254882812	-0.0	-0.0	-0.0	-0.0	-0.0	-0.0	264110.71875	-19456.220703125	-1732.7490234375
0.2095	-0.0	-0.0	-0.0	-0.0	-0.0	-0.0	1.55410635471344	0.8712637424468994	-773.552001953125	-0.0	-0.0	-0.0	-0.0	-0.0	-0.0	263063.625	-19245.51953125	-1466.4857177734375
0.21	-0.0	-0.0	-0.0	-0.0	-0.0	-0.0	1.550553798675537	0.9139085412025452	-768.9990234375	-0.0	-0.0	-0.0	-0.0	-0.0	-0.0	261846.796875	-19168.671875	-1422.5389404296875
0.2105	-0.0	-0.0	-0.0	-0.0	-0.0	-0.0	1.6122558116912842	0.4416084289550781	-765.932861328125	-0.0	-0.0	-0.0	-0.0	-0.0	-0.0	260705.40625	-19084.9921875	-1283.2779541015625
0.211	-0.0	-0.0	-0.0	-0.0	-0.0	-0.0	1.41937255859375	-0.0463981330394744	-760.9848022460938	-0.0	-0.0	-0.0	-0.0	-0.0	-0.0	259086.703125	-18421.884765625	-1283.442138671875
0.2115	-0.0	-0.0	-0.0	-0.0	-0.0	-0.0	0.5478469729423523	-0.8521890640258789	-756.5502319335938	-0.0	-0.0	-0.0	-0.0	-0.0	-0.0	257621.1875	-18026.32421875	-1275.3804931640625
0.212	-0.0	-0.0	-0.0	-0.0	-0.0	-0.0	-0.0312854647636413	-2.000250577926636	-751.2301025390625	-0.0	-0.0	-0.0	-0.0	-0.0	-0.0	255467.125	-17460.990234375	-1340.642822265625
